<svg width="21" height="21" viewBox="0 0 21 21" fill="none" xmlns="http://www.w3.org/2000/svg">
<path fill-rule="evenodd" clip-rule="evenodd" d="M10.5 2.86364L0 0V18.1662L10.5 21L21 18.1662V0L10.5 2.86364ZM11.1264 3.99139L19.2517 1.7754L14.2294 11.6229L11.1264 8.97326V3.99139ZM11.1264 10.6207L13.644 12.7706L11.1264 17.7069V10.6207ZM14.6237 13.6071L11.6771 19.3846L19.0571 17.3929L14.6237 13.6071ZM19.7472 3.56154L15.2091 12.4595L19.7472 16.3346V3.56154ZM9.87358 7.90344V3.99139L3.14247 2.15563L9.87358 7.90344ZM1.25284 3.46421V17.2066L9.40696 19.4073L1.25284 3.46421ZM9.87358 17.5683L2.59368 3.33448L9.87358 9.5509V17.5683Z" fill="#FDFDFD"/>
</svg>
