<svg width="21" height="21" viewBox="0 0 21 21" fill="none" xmlns="http://www.w3.org/2000/svg">
<path fill-rule="evenodd" clip-rule="evenodd" d="M5.82698 0L0 7.49482L2.07959 16.8406L10.5001 21L18.9204 16.8406L21 7.49482L15.1729 0H5.82698ZM7.51416 1.35295H13.4858L10.5001 5.19331L7.51416 1.35295ZM1.77372 7.3832L6.14461 1.76141L9.65642 6.27838L7.04143 9.64169L1.77372 7.3832ZM15.1936 2.19652L19.103 7.22491L13.8222 8.35922L15.1936 2.19652ZM11.3435 6.27838L13.5693 3.41553L12.5789 7.86715L11.3435 6.27838ZM10.5001 7.36331L11.6388 8.82815L8.90455 9.41547L10.5001 7.36331ZM14.0056 9.70216L19.4143 8.54038L18.0098 14.8523L14.0056 9.70216ZM1.64179 8.79311L6.18641 10.7415L2.99025 14.8523L1.64179 8.79311ZM3.68315 16.1311L7.61415 11.075L12.0783 10.116L10.041 19.2716L3.68315 16.1311ZM13.2553 10.9071L17.3167 16.1311L11.4477 19.0301L13.2553 10.9071Z" fill="#FFF"/>
</svg>
