<svg width="63" height="21" viewBox="0 0 63 21" fill="none" xmlns="http://www.w3.org/2000/svg">
<path fill-rule="evenodd" clip-rule="evenodd" d="M5.83476 0L0 7.49482L2.08237 16.8406L10.5141 21L18.9457 16.8406L21.028 7.49482L15.1931 0H5.83476ZM7.5242 1.35295H13.5038L10.5141 5.19331L7.5242 1.35295ZM1.77609 7.3832L6.15282 1.76141L9.66931 6.27838L7.05083 9.64169L1.77609 7.3832ZM15.2139 2.19652L19.1285 7.22491L13.8407 8.35922L15.2139 2.19652ZM11.3586 6.27838L13.5874 3.41553L12.5957 7.86715L11.3586 6.27838ZM10.5141 7.36331L11.6543 8.82815L8.91644 9.41547L10.5141 7.36331ZM14.0243 9.70216L19.4402 8.54038L18.0338 14.8523L14.0243 9.70216ZM1.64399 8.79311L6.19467 10.7415L2.99424 14.8523L1.64399 8.79311ZM3.68807 16.1311L7.62431 11.075L12.0944 10.116L10.0545 19.2716L3.68807 16.1311ZM13.273 10.9071L17.3398 16.1311L11.463 19.0301L13.273 10.9071Z" fill="#010013"/>
<path d="M55.2079 14.9945H53.3068V4.66667H55.2079V14.9945Z" fill="#010013"/>
<path fill-rule="evenodd" clip-rule="evenodd" d="M32.5596 5.25478C33.683 5.25478 34.5327 5.5082 35.1088 6.01503C35.6848 6.52186 35.9729 7.20082 35.9729 8.05191C35.9729 8.60656 35.8433 9.10861 35.584 9.55806C35.3248 9.99795 34.9359 10.347 34.4175 10.6052C33.899 10.8634 33.2653 10.9925 32.5164 10.9925H30.0249V14.9945H28.0374V5.25478H32.5596ZM32.2428 9.47199C32.8188 9.47199 33.2557 9.34768 33.5533 9.09904C33.851 8.85041 33.9998 8.51571 33.9998 8.09494C33.9998 7.21516 33.4093 6.77527 32.2284 6.77527H30.0249V9.47199H32.2428Z" fill="#010013"/>
<path fill-rule="evenodd" clip-rule="evenodd" d="M40.2215 15.1667C39.5014 15.1667 38.8533 15.0089 38.2772 14.6933C37.7011 14.3777 37.2499 13.9283 36.9234 13.3449C36.597 12.752 36.4337 12.0683 36.4337 11.2937C36.4337 10.5191 36.597 9.84016 36.9234 9.25683C37.2499 8.66393 37.7011 8.2097 38.2772 7.89412C38.8533 7.56899 39.5014 7.40642 40.2215 7.40642C40.9416 7.40642 41.5849 7.56899 42.1513 7.89412C42.7274 8.2097 43.1787 8.66393 43.5051 9.25683C43.8316 9.84016 43.9948 10.5191 43.9948 11.2937C43.9948 12.0683 43.8316 12.7473 43.5051 13.3306C43.1787 13.9139 42.7274 14.3682 42.1513 14.6933C41.5849 15.0089 40.9416 15.1667 40.2215 15.1667ZM40.2071 13.6318C40.7639 13.6318 41.2104 13.4214 41.5465 13.0007C41.8921 12.5799 42.0649 12.0109 42.0649 11.2937C42.0649 10.5765 41.8921 10.0075 41.5465 9.58675C41.2104 9.15642 40.7639 8.94126 40.2071 8.94126C39.6502 8.94126 39.1989 9.15642 38.8533 9.58675C38.5172 10.0075 38.3492 10.5765 38.3492 11.2937C38.3492 12.0109 38.5172 12.5799 38.8533 13.0007C39.1989 13.4214 39.6502 13.6318 40.2071 13.6318Z" fill="#010013"/>
<path fill-rule="evenodd" clip-rule="evenodd" d="M46.5049 14.6933C47.081 15.0089 47.7291 15.1667 48.4492 15.1667C49.1693 15.1667 49.8126 15.0089 50.379 14.6933C50.9551 14.3682 51.4064 13.9139 51.7328 13.3306C52.0593 12.7473 52.2225 12.0683 52.2225 11.2937C52.2225 10.5191 52.0593 9.84016 51.7328 9.25683C51.4064 8.66393 50.9551 8.2097 50.379 7.89412C49.8126 7.56899 49.1693 7.40642 48.4492 7.40642C47.7291 7.40642 47.081 7.56899 46.5049 7.89412C45.9288 8.2097 45.4776 8.66393 45.1511 9.25683C44.8247 9.84016 44.6614 10.5191 44.6614 11.2937C44.6614 12.0683 44.8247 12.752 45.1511 13.3449C45.4776 13.9283 45.9288 14.3777 46.5049 14.6933ZM49.7742 13.0007C49.4381 13.4214 48.9916 13.6318 48.4348 13.6318C47.8779 13.6318 47.4266 13.4214 47.081 13.0007C46.7449 12.5799 46.5769 12.0109 46.5769 11.2937C46.5769 10.5765 46.7449 10.0075 47.081 9.58675C47.4266 9.15642 47.8779 8.94126 48.4348 8.94126C48.9916 8.94126 49.4381 9.15642 49.7742 9.58675C50.1198 10.0075 50.2926 10.5765 50.2926 11.2937C50.2926 12.0109 50.1198 12.5799 49.7742 13.0007Z" fill="#010013"/>
<path d="M62.5 14.9945V13.431H58.7411L62.4568 9.05601V7.57855H56.4512V9.14208H60.0229L56.3071 13.5027V14.9945H62.5Z" fill="#010013"/>
</svg>
