<svg width="24" height="24" viewBox="0 0 24 24" fill="none" xmlns="http://www.w3.org/2000/svg">
<g opacity="0.7">
<path d="M12 24C18.6274 24 24 18.6274 24 12C24 5.37258 18.6274 0 12 0C5.37258 0 0 5.37258 0 12C0 18.6274 5.37258 24 12 24Z" fill="#010013"/>
<path fill-rule="evenodd" clip-rule="evenodd" d="M5.43201 10.8734C8.93026 9.34932 11.263 8.34452 12.4301 7.85905C15.7627 6.47294 16.4551 6.23216 16.9065 6.22421C17.0058 6.22246 17.2277 6.24706 17.3715 6.36372C17.4929 6.46223 17.5263 6.5953 17.5423 6.6887C17.5583 6.78209 17.5782 6.99485 17.5623 7.1611C17.3817 9.05858 16.6003 13.6633 16.2028 15.7885C16.0346 16.6877 15.7034 16.9892 15.3827 17.0188C14.6858 17.0829 14.1567 16.5582 13.4817 16.1158C12.4256 15.4235 11.8289 14.9925 10.8037 14.3169C9.61896 13.5362 10.387 13.107 11.0622 12.4058C11.2389 12.2222 14.3093 9.42947 14.3687 9.17613C14.3762 9.14444 14.3831 9.02633 14.3129 8.96397C14.2427 8.9016 14.1392 8.92293 14.0644 8.93989C13.9585 8.96393 12.2713 10.0791 9.00276 12.2855C8.52385 12.6143 8.09007 12.7745 7.70141 12.7662C7.27295 12.7569 6.44876 12.5239 5.83606 12.3247C5.08456 12.0804 4.48728 11.9513 4.53929 11.5364C4.56638 11.3203 4.86395 11.0993 5.43201 10.8734Z" fill="#FDFDFD"/>
</g>
</svg>
