<svg width="19" height="22" viewBox="0 0 19 22" fill="none" xmlns="http://www.w3.org/2000/svg">
<path fill-rule="evenodd" clip-rule="evenodd" d="M19 5.5L9.5 0L0 5.5V16.5L9.5 22L19 16.5V5.5ZM8.84556 9.82624L1.99536 5.86034L8.84556 1.89443V9.82624ZM2.48657 7.66026L8.21472 10.9766L5.33507 12.6437L2.48657 7.66026ZM1.30888 8.23926V14.9747L4.20154 13.3L1.30888 8.23926ZM4.85242 14.4387L1.95488 16.1162L7.71861 19.4531L4.85242 14.4387ZM8.84556 18.7854V12.1269L5.98595 13.7824L8.84556 18.7854ZM17.0687 16.1026L10.1544 12.0996V20.1056L17.0687 16.1026ZM10.8325 10.9766L17.6911 14.9474V7.00577L10.8325 10.9766ZM17.0282 5.874L10.1544 1.89443V9.85357L17.0282 5.874Z" fill="#FDFDFD"/>
</svg>
